# xmcd CD database file
#
# Track frame offsets:
#	150
#	26116
#	46444
#	60604
#	74951
#	102689
#	109196
#	156409
#	176544
#
# Disc length: 2712 seconds
#
# Revision: 3
# Processed by: cddbd v1.5.1PL0 Copyright (c) Steve Scherf et al.
# Submitted via: CDex 1.51
#
DISCID=8a0a9609
DTITLE=Carlos Santana - Blues For Salvador
DYEAR=1987
DGENRE=Rock
TTITLE0=Bailando/Aquatic Park
TTITLE1=Bella
TTITLE2=I'm Gone
TTITLE3=Trane
TTITLE4=Deeper, Dig Deeper
TTITLE5=Mingus
TTITLE6=Now That You Know
TTITLE7=Hannibal
TTITLE8=Blues For Salvador
EXTD=YEAR: 1987
EXTT0=
EXTT1=
EXTT2=
EXTT3=
EXTT4=
EXTT5=
EXTT6=
EXTT7=
EXTT8=
PLAYORDER=
